<svg xmlns="http://www.w3.org/2000/svg" width="1680" height="540" viewBox="0 0 1680 540">
<rect width="1680" height="540" fill="#F6F0E2"/>
<text x="1645.0" y="18.0" text-anchor="end" font-size="9" font-weight="normal" fill="#888888" font-family="Calibri,Arial,sans-serif">Generated 6/19/2026</text>
<rect x="35" y="280" width="1610" height="32" fill="#000000" rx="5"/>
<line x1="35" y1="296.0" x2="615.7" y2="296.0" stroke="#EE001E" stroke-width="7" stroke-linecap="round"/>
<text x="114.2" y="301.0" text-anchor="middle" font-size="13" font-weight="bold" fill="#ffffff" font-family="Calibri,Arial,sans-serif">Mar</text>
<line x1="198.6" y1="284" x2="198.6" y2="308" stroke="rgba(255,255,255,0.25)" stroke-width="1"/>
<text x="275.2" y="301.0" text-anchor="middle" font-size="13" font-weight="bold" fill="#ffffff" font-family="Calibri,Arial,sans-serif">Apr</text>
<line x1="357.0" y1="284" x2="357.0" y2="308" stroke="rgba(255,255,255,0.25)" stroke-width="1"/>
<text x="436.2" y="301.0" text-anchor="middle" font-size="13" font-weight="bold" fill="#ffffff" font-family="Calibri,Arial,sans-serif">May</text>
<line x1="520.6" y1="284" x2="520.6" y2="308" stroke="rgba(255,255,255,0.25)" stroke-width="1"/>
<text x="597.2" y="301.0" text-anchor="middle" font-size="13" font-weight="bold" fill="#ffffff" font-family="Calibri,Arial,sans-serif">Jun</text>
<line x1="679.0" y1="284" x2="679.0" y2="308" stroke="rgba(255,255,255,0.25)" stroke-width="1"/>
<text x="758.2" y="301.0" text-anchor="middle" font-size="13" font-weight="bold" fill="#ffffff" font-family="Calibri,Arial,sans-serif">Jul</text>
<line x1="842.6" y1="284" x2="842.6" y2="308" stroke="rgba(255,255,255,0.25)" stroke-width="1"/>
<text x="921.8" y="301.0" text-anchor="middle" font-size="13" font-weight="bold" fill="#ffffff" font-family="Calibri,Arial,sans-serif">Aug</text>
<line x1="1006.3" y1="284" x2="1006.3" y2="308" stroke="rgba(255,255,255,0.25)" stroke-width="1"/>
<text x="1082.8" y="301.0" text-anchor="middle" font-size="13" font-weight="bold" fill="#ffffff" font-family="Calibri,Arial,sans-serif">Sep</text>
<line x1="1164.6" y1="284" x2="1164.6" y2="308" stroke="rgba(255,255,255,0.25)" stroke-width="1"/>
<text x="1243.8" y="301.0" text-anchor="middle" font-size="13" font-weight="bold" fill="#ffffff" font-family="Calibri,Arial,sans-serif">Oct</text>
<line x1="1328.3" y1="284" x2="1328.3" y2="308" stroke="rgba(255,255,255,0.25)" stroke-width="1"/>
<text x="1404.8" y="301.0" text-anchor="middle" font-size="13" font-weight="bold" fill="#ffffff" font-family="Calibri,Arial,sans-serif">Nov</text>
<line x1="1486.6" y1="284" x2="1486.6" y2="308" stroke="rgba(255,255,255,0.25)" stroke-width="1"/>
<text x="1565.8" y="301.0" text-anchor="middle" font-size="13" font-weight="bold" fill="#ffffff" font-family="Calibri,Arial,sans-serif">Dec</text>
<line x1="130.0" y1="280" x2="130.0" y2="212" stroke="#0089EC" stroke-width="1.3"/>
<polygon points="130.01639344262296,271 139.01639344262296,280 130.01639344262296,289 121.01639344262296,280" fill="#0089EC"/>
<text x="130.0" y="207.0" text-anchor="middle" font-size="12.5" font-weight="normal" fill="#1a1a1a" font-family="Calibri,Arial,sans-serif">Project Kickoff</text>
<text x="130.0" y="190.0" text-anchor="middle" font-size="10" font-weight="bold" fill="#1a1a1a" font-family="Calibri,Arial,sans-serif">3/19</text>
<line x1="167.0" y1="312" x2="167.0" y2="380" stroke="#888888" stroke-width="1.3"/>
<polygon points="166.9672131147541,303 175.9672131147541,312 166.9672131147541,321 157.9672131147541,312" fill="#888888"/>
<text x="167.0" y="399.0" text-anchor="middle" font-size="12.5" font-weight="normal" fill="#1a1a1a" font-family="Calibri,Arial,sans-serif">Product Requirements</text>
<text x="167.0" y="413.0" text-anchor="middle" font-size="12.5" font-weight="normal" fill="#1a1a1a" font-family="Calibri,Arial,sans-serif">Review</text>
<text x="167.0" y="429.0" text-anchor="middle" font-size="10" font-weight="bold" fill="#1a1a1a" font-family="Calibri,Arial,sans-serif">3/26</text>
<line x1="378.1" y1="280" x2="378.1" y2="212" stroke="#888888" stroke-width="1.3"/>
<polygon points="378.1147540983606,271 387.1147540983606,280 378.1147540983606,289 369.1147540983606,280" fill="#888888"/>
<text x="378.1" y="179.0" text-anchor="middle" font-size="12.5" font-weight="normal" fill="#1a1a1a" font-family="Calibri,Arial,sans-serif">Submit and Schedule</text>
<text x="378.1" y="193.0" text-anchor="middle" font-size="12.5" font-weight="normal" fill="#1a1a1a" font-family="Calibri,Arial,sans-serif">Network Planning</text>
<text x="378.1" y="207.0" text-anchor="middle" font-size="12.5" font-weight="normal" fill="#1a1a1a" font-family="Calibri,Arial,sans-serif">Front Door Review</text>
<text x="378.1" y="162.0" text-anchor="middle" font-size="10" font-weight="bold" fill="#1a1a1a" font-family="Calibri,Arial,sans-serif">5/5</text>
<line x1="452.0" y1="312" x2="452.0" y2="380" stroke="#888888" stroke-width="1.3"/>
<polygon points="452.0163934426229,301 463.0163934426229,312 452.0163934426229,323 441.0163934426229,312" fill="#888888"/>
<text x="452.0" y="399.0" text-anchor="middle" font-size="12.5" font-weight="bold" fill="#1a1a1a" font-family="Calibri,Arial,sans-serif">Business Case</text>
<text x="452.0" y="413.0" text-anchor="middle" font-size="12.5" font-weight="bold" fill="#1a1a1a" font-family="Calibri,Arial,sans-serif">Approved</text>
<text x="452.0" y="429.0" text-anchor="middle" font-size="10" font-weight="bold" fill="#1a1a1a" font-family="Calibri,Arial,sans-serif">5/19</text>
<line x1="489.0" y1="280" x2="489.0" y2="165" stroke="#888888" stroke-width="1.3"/>
<polygon points="488.9672131147541,271 497.9672131147541,280 488.9672131147541,289 479.9672131147541,280" fill="#888888"/>
<text x="489.0" y="160.0" text-anchor="middle" font-size="12.5" font-weight="normal" fill="#1a1a1a" font-family="Calibri,Arial,sans-serif">GTS FD Approval</text>
<text x="489.0" y="143.0" text-anchor="middle" font-size="10" font-weight="bold" fill="#1a1a1a" font-family="Calibri,Arial,sans-serif">5/26</text>
<line x1="557.6" y1="312" x2="557.6" y2="427" stroke="#888888" stroke-width="1.3"/>
<polygon points="557.5901639344263,303 566.5901639344263,312 557.5901639344263,321 548.5901639344263,312" fill="#888888"/>
<text x="557.6" y="446.0" text-anchor="middle" font-size="12.5" font-weight="normal" fill="#1a1a1a" font-family="Calibri,Arial,sans-serif">Big Team Review</text>
<text x="557.6" y="460.0" text-anchor="middle" font-size="12.5" font-weight="normal" fill="#1a1a1a" font-family="Calibri,Arial,sans-serif">(including prep and</text>
<text x="557.6" y="474.0" text-anchor="middle" font-size="12.5" font-weight="normal" fill="#1a1a1a" font-family="Calibri,Arial,sans-serif">call)</text>
<text x="557.6" y="490.0" text-anchor="middle" font-size="10" font-weight="bold" fill="#1a1a1a" font-family="Calibri,Arial,sans-serif">6/8</text>
<line x1="1117.1" y1="280" x2="1117.1" y2="212" stroke="#888888" stroke-width="1.3"/>
<polygon points="1117.1311475409836,269 1128.1311475409836,280 1117.1311475409836,291 1106.1311475409836,280" fill="#888888"/>
<text x="1117.1" y="193.0" text-anchor="middle" font-size="12.5" font-weight="bold" fill="#1a1a1a" font-family="Calibri,Arial,sans-serif">Committed Date</text>
<text x="1117.1" y="207.0" text-anchor="middle" font-size="12.5" font-weight="bold" fill="#1a1a1a" font-family="Calibri,Arial,sans-serif">Received - GTS</text>
<text x="1117.1" y="176.0" text-anchor="middle" font-size="10" font-weight="bold" fill="#1a1a1a" font-family="Calibri,Arial,sans-serif">9/22</text>
<line x1="1117.1" y1="312" x2="1117.1" y2="380" stroke="#888888" stroke-width="1.3"/>
<polygon points="1117.1311475409836,301 1128.1311475409836,312 1117.1311475409836,323 1106.1311475409836,312" fill="#888888"/>
<text x="1117.1" y="399.0" text-anchor="middle" font-size="12.5" font-weight="bold" fill="#1a1a1a" font-family="Calibri,Arial,sans-serif">Committed Date</text>
<text x="1117.1" y="413.0" text-anchor="middle" font-size="12.5" font-weight="bold" fill="#1a1a1a" font-family="Calibri,Arial,sans-serif">Received - TPD</text>
<text x="1117.1" y="429.0" text-anchor="middle" font-size="10" font-weight="bold" fill="#1a1a1a" font-family="Calibri,Arial,sans-serif">9/22</text>
<line x1="1117.1" y1="280" x2="1117.1" y2="165" stroke="#888888" stroke-width="1.3"/>
<polygon points="1117.1311475409836,269 1128.1311475409836,280 1117.1311475409836,291 1106.1311475409836,280" fill="#888888"/>
<text x="1117.1" y="146.0" text-anchor="middle" font-size="12.5" font-weight="bold" fill="#1a1a1a" font-family="Calibri,Arial,sans-serif">Committed Date</text>
<text x="1117.1" y="160.0" text-anchor="middle" font-size="12.5" font-weight="bold" fill="#1a1a1a" font-family="Calibri,Arial,sans-serif">Received - NI</text>
<text x="1117.1" y="129.0" text-anchor="middle" font-size="10" font-weight="bold" fill="#1a1a1a" font-family="Calibri,Arial,sans-serif">9/22</text>
<line x1="1338.8" y1="312" x2="1338.8" y2="380" stroke="#888888" stroke-width="1.3"/>
<polygon points="1338.8360655737706,301 1349.8360655737706,312 1338.8360655737706,323 1327.8360655737706,312" fill="#888888"/>
<text x="1338.8" y="399.0" text-anchor="middle" font-size="12.5" font-weight="bold" fill="#1a1a1a" font-family="Calibri,Arial,sans-serif">Production Testing</text>
<text x="1338.8" y="413.0" text-anchor="middle" font-size="12.5" font-weight="bold" fill="#1a1a1a" font-family="Calibri,Arial,sans-serif">Signoff</text>
<text x="1338.8" y="429.0" text-anchor="middle" font-size="10" font-weight="bold" fill="#1a1a1a" font-family="Calibri,Arial,sans-serif">11/3</text>
<line x1="1523.6" y1="280" x2="1523.6" y2="212" stroke="#888888" stroke-width="1.3"/>
<polygon points="1523.5901639344263,269 1534.5901639344263,280 1523.5901639344263,291 1512.5901639344263,280" fill="#888888"/>
<text x="1523.6" y="165.0" text-anchor="middle" font-size="12.5" font-weight="bold" fill="#1a1a1a" font-family="Calibri,Arial,sans-serif">System and/or</text>
<text x="1523.6" y="179.0" text-anchor="middle" font-size="12.5" font-weight="bold" fill="#1a1a1a" font-family="Calibri,Arial,sans-serif">Integration, E2E or</text>
<text x="1523.6" y="193.0" text-anchor="middle" font-size="12.5" font-weight="bold" fill="#1a1a1a" font-family="Calibri,Arial,sans-serif">Lower Env  Testing</text>
<text x="1523.6" y="207.0" text-anchor="middle" font-size="12.5" font-weight="bold" fill="#1a1a1a" font-family="Calibri,Arial,sans-serif">Signoff</text>
<text x="1523.6" y="148.0" text-anchor="middle" font-size="10" font-weight="bold" fill="#1a1a1a" font-family="Calibri,Arial,sans-serif">12/8</text>
<line x1="1523.6" y1="312" x2="1523.6" y2="380" stroke="#888888" stroke-width="1.3"/>
<polygon points="1523.5901639344263,301 1534.5901639344263,312 1523.5901639344263,323 1512.5901639344263,312" fill="#888888"/>
<text x="1523.6" y="399.0" text-anchor="middle" font-size="12.5" font-weight="bold" fill="#1a1a1a" font-family="Calibri,Arial,sans-serif">Technology</text>
<text x="1523.6" y="413.0" text-anchor="middle" font-size="12.5" font-weight="bold" fill="#1a1a1a" font-family="Calibri,Arial,sans-serif">Operational Ready</text>
<text x="1523.6" y="429.0" text-anchor="middle" font-size="10" font-weight="bold" fill="#1a1a1a" font-family="Calibri,Arial,sans-serif">12/8</text>
<line x1="1597.5" y1="280" x2="1597.5" y2="165" stroke="#888888" stroke-width="1.3"/>
<polygon points="1597.4918032786886,269 1608.4918032786886,280 1597.4918032786886,291 1586.4918032786886,280" fill="#888888"/>
<text x="1597.5" y="160.0" text-anchor="middle" font-size="12.5" font-weight="bold" fill="#1a1a1a" font-family="Calibri,Arial,sans-serif">Project End</text>
<text x="1597.5" y="143.0" text-anchor="middle" font-size="10" font-weight="bold" fill="#1a1a1a" font-family="Calibri,Arial,sans-serif">12/22</text>
<rect x="35.0" y="12" width="92" height="22" rx="11" fill="#0089EC"/>
<polygon points="47.0,19.0 51.0,23.0 47.0,27.0 43.0,23.0" fill="#ffffff"/>
<text x="57.0" y="27.0" text-anchor="start" font-size="9.5" font-weight="normal" fill="#ffffff" font-family="Calibri,Arial,sans-serif">Complete</text>
<rect x="137.0" y="12" width="92" height="22" rx="11" fill="#00B845"/>
<polygon points="149.0,19.0 153.0,23.0 149.0,27.0 145.0,23.0" fill="#ffffff"/>
<text x="159.0" y="27.0" text-anchor="start" font-size="9.5" font-weight="normal" fill="#ffffff" font-family="Calibri,Arial,sans-serif">On Track</text>
<rect x="239.0" y="12" width="90" height="22" rx="11" fill="#FFCD27"/>
<polygon points="251.0,19.0 255.0,23.0 251.0,27.0 247.0,23.0" fill="#ffffff"/>
<text x="261.0" y="27.0" text-anchor="start" font-size="9.5" font-weight="normal" fill="#1a1a1a" font-family="Calibri,Arial,sans-serif">At Risk</text>
<rect x="339.0" y="12" width="92" height="22" rx="11" fill="#EE001E"/>
<polygon points="351.0,19.0 355.0,23.0 351.0,27.0 347.0,23.0" fill="#ffffff"/>
<text x="361.0" y="27.0" text-anchor="start" font-size="9.5" font-weight="normal" fill="#ffffff" font-family="Calibri,Arial,sans-serif">Jeopardy</text>
<rect x="441.0" y="12" width="183" height="22" rx="11" fill="#888888"/>
<polygon points="453.0,19.0 457.0,23.0 453.0,27.0 449.0,23.0" fill="#ffffff"/>
<text x="463.0" y="27.0" text-anchor="start" font-size="9.5" font-weight="normal" fill="#ffffff" font-family="Calibri,Arial,sans-serif">Not Started / On Hold</text>
<rect x="634.0" y="12" width="155" height="22" rx="11" fill="#EE001E"/>
<rect x="642.0" y="21.5" width="8" height="3" rx="1.5" fill="#ffffff"/>
<text x="656.0" y="27.0" text-anchor="start" font-size="9.5" font-weight="normal" fill="#ffffff" font-family="Calibri,Arial,sans-serif">Progress to Today</text>
</svg>