<svg xmlns="http://www.w3.org/2000/svg" width="1680" height="540" viewBox="0 0 1680 540">
<rect width="1680" height="540" fill="#F6F0E2"/>
<text x="1645.0" y="18.0" text-anchor="end" font-size="9" font-weight="normal" fill="#888888" font-family="Calibri,Arial,sans-serif">Generated 7/14/2026</text>
<rect x="35" y="280" width="1610" height="32" fill="#000000" rx="5"/>
<line x1="35" y1="296.0" x2="149.4" y2="296.0" stroke="#59D186" stroke-width="7" stroke-linecap="round"/>
<text x="167.0" y="301.0" text-anchor="middle" font-size="13" font-weight="bold" fill="#ffffff" font-family="Calibri,Arial,sans-serif">Jul</text>
<line x1="307.7" y1="284" x2="307.7" y2="308" stroke="rgba(255,255,255,0.25)" stroke-width="1"/>
<text x="439.7" y="301.0" text-anchor="middle" font-size="13" font-weight="bold" fill="#ffffff" font-family="Calibri,Arial,sans-serif">Aug</text>
<line x1="580.5" y1="284" x2="580.5" y2="308" stroke="rgba(255,255,255,0.25)" stroke-width="1"/>
<text x="708.0" y="301.0" text-anchor="middle" font-size="13" font-weight="bold" fill="#ffffff" font-family="Calibri,Arial,sans-serif">Sep</text>
<line x1="844.4" y1="284" x2="844.4" y2="308" stroke="rgba(255,255,255,0.25)" stroke-width="1"/>
<text x="976.4" y="301.0" text-anchor="middle" font-size="13" font-weight="bold" fill="#ffffff" font-family="Calibri,Arial,sans-serif">Oct</text>
<line x1="1117.1" y1="284" x2="1117.1" y2="308" stroke="rgba(255,255,255,0.25)" stroke-width="1"/>
<text x="1244.7" y="301.0" text-anchor="middle" font-size="13" font-weight="bold" fill="#ffffff" font-family="Calibri,Arial,sans-serif">Nov</text>
<line x1="1381.1" y1="284" x2="1381.1" y2="308" stroke="rgba(255,255,255,0.25)" stroke-width="1"/>
<text x="1513.0" y="301.0" text-anchor="middle" font-size="13" font-weight="bold" fill="#ffffff" font-family="Calibri,Arial,sans-serif">Dec</text>
<line x1="105.4" y1="280" x2="105.4" y2="212" stroke="#0089EC" stroke-width="1.3"/>
<polygon points="105.38251366120218,271 114.38251366120218,280 105.38251366120218,289 96.38251366120218,280" fill="#0089EC"/>
<text x="105.4" y="193.0" text-anchor="middle" font-size="12.5" font-weight="normal" fill="#1a1a1a" font-family="Calibri,Arial,sans-serif">GTS Low Level Design</text>
<text x="105.4" y="207.0" text-anchor="middle" font-size="12.5" font-weight="normal" fill="#1a1a1a" font-family="Calibri,Arial,sans-serif">and Grooming</text>
<text x="105.4" y="176.0" text-anchor="middle" font-size="10" font-weight="bold" fill="#1a1a1a" font-family="Calibri,Arial,sans-serif">7/9</text>
<line x1="114.2" y1="312" x2="114.2" y2="380" stroke="#00B845" stroke-width="1.3"/>
<polygon points="114.18032786885246,301 125.18032786885246,312 114.18032786885246,323 103.18032786885246,312" fill="#00B845"/>
<text x="114.2" y="399.0" text-anchor="middle" font-size="12.5" font-weight="bold" fill="#1a1a1a" font-family="Calibri,Arial,sans-serif">GTS Low Level Design</text>
<text x="114.2" y="413.0" text-anchor="middle" font-size="12.5" font-weight="bold" fill="#1a1a1a" font-family="Calibri,Arial,sans-serif">and Grooming</text>
<text x="114.2" y="427.0" text-anchor="middle" font-size="12.5" font-weight="bold" fill="#1a1a1a" font-family="Calibri,Arial,sans-serif">Complete Enough for</text>
<text x="114.2" y="441.0" text-anchor="middle" font-size="12.5" font-weight="bold" fill="#1a1a1a" font-family="Calibri,Arial,sans-serif">Development to Begin</text>
<text x="114.2" y="457.0" text-anchor="middle" font-size="10" font-weight="bold" fill="#1a1a1a" font-family="Calibri,Arial,sans-serif">7/10</text>
<line x1="351.7" y1="280" x2="351.7" y2="212" stroke="#00B845" stroke-width="1.3"/>
<polygon points="351.72131147540983,271 360.72131147540983,280 351.72131147540983,289 342.72131147540983,280" fill="#00B845"/>
<text x="351.7" y="179.0" text-anchor="middle" font-size="12.5" font-weight="normal" fill="#1a1a1a" font-family="Calibri,Arial,sans-serif">Network early</text>
<text x="351.7" y="193.0" text-anchor="middle" font-size="12.5" font-weight="normal" fill="#1a1a1a" font-family="Calibri,Arial,sans-serif">engagement (EE) -</text>
<text x="351.7" y="207.0" text-anchor="middle" font-size="12.5" font-weight="normal" fill="#1a1a1a" font-family="Calibri,Arial,sans-serif">OSS</text>
<text x="351.7" y="162.0" text-anchor="middle" font-size="10" font-weight="bold" fill="#1a1a1a" font-family="Calibri,Arial,sans-serif">8/6</text>
<line x1="589.3" y1="312" x2="589.3" y2="380" stroke="#888888" stroke-width="1.3"/>
<polygon points="589.2622950819672,303 598.2622950819672,312 589.2622950819672,321 580.2622950819672,312" fill="#888888"/>
<text x="589.3" y="399.0" text-anchor="middle" font-size="12.5" font-weight="normal" fill="#1a1a1a" font-family="Calibri,Arial,sans-serif">Development</text>
<text x="589.3" y="413.0" text-anchor="middle" font-size="12.5" font-weight="normal" fill="#1a1a1a" font-family="Calibri,Arial,sans-serif">Activities</text>
<text x="589.3" y="429.0" text-anchor="middle" font-size="10" font-weight="bold" fill="#1a1a1a" font-family="Calibri,Arial,sans-serif">9/2</text>
<line x1="633.3" y1="280" x2="633.3" y2="212" stroke="#888888" stroke-width="1.3"/>
<polygon points="633.2513661202186,271 642.2513661202186,280 633.2513661202186,289 624.2513661202186,280" fill="#888888"/>
<text x="633.3" y="207.0" text-anchor="middle" font-size="12.5" font-weight="normal" fill="#1a1a1a" font-family="Calibri,Arial,sans-serif">Development</text>
<text x="633.3" y="190.0" text-anchor="middle" font-size="10" font-weight="bold" fill="#1a1a1a" font-family="Calibri,Arial,sans-serif">9/7</text>
<rect x="35.0" y="12" width="92" height="22" rx="11" fill="#0089EC"/>
<polygon points="47.0,19.0 51.0,23.0 47.0,27.0 43.0,23.0" fill="#ffffff"/>
<text x="57.0" y="27.0" text-anchor="start" font-size="9.5" font-weight="normal" fill="#ffffff" font-family="Calibri,Arial,sans-serif">Complete</text>
<rect x="137.0" y="12" width="92" height="22" rx="11" fill="#00B845"/>
<polygon points="149.0,19.0 153.0,23.0 149.0,27.0 145.0,23.0" fill="#ffffff"/>
<text x="159.0" y="27.0" text-anchor="start" font-size="9.5" font-weight="normal" fill="#ffffff" font-family="Calibri,Arial,sans-serif">On Track</text>
<rect x="239.0" y="12" width="90" height="22" rx="11" fill="#FFCD27"/>
<polygon points="251.0,19.0 255.0,23.0 251.0,27.0 247.0,23.0" fill="#ffffff"/>
<text x="261.0" y="27.0" text-anchor="start" font-size="9.5" font-weight="normal" fill="#1a1a1a" font-family="Calibri,Arial,sans-serif">At Risk</text>
<rect x="339.0" y="12" width="92" height="22" rx="11" fill="#EE001E"/>
<polygon points="351.0,19.0 355.0,23.0 351.0,27.0 347.0,23.0" fill="#ffffff"/>
<text x="361.0" y="27.0" text-anchor="start" font-size="9.5" font-weight="normal" fill="#ffffff" font-family="Calibri,Arial,sans-serif">Jeopardy</text>
<rect x="441.0" y="12" width="183" height="22" rx="11" fill="#888888"/>
<polygon points="453.0,19.0 457.0,23.0 453.0,27.0 449.0,23.0" fill="#ffffff"/>
<text x="463.0" y="27.0" text-anchor="start" font-size="9.5" font-weight="normal" fill="#ffffff" font-family="Calibri,Arial,sans-serif">Not Started / On Hold</text>
<rect x="634.0" y="12" width="155" height="22" rx="11" fill="#59D186"/>
<rect x="642.0" y="21.5" width="8" height="3" rx="1.5" fill="#ffffff"/>
<text x="656.0" y="27.0" text-anchor="start" font-size="9.5" font-weight="normal" fill="#ffffff" font-family="Calibri,Arial,sans-serif">Progress to Today</text>
</svg>