<svg xmlns="http://www.w3.org/2000/svg" width="1680" height="540" viewBox="0 0 1680 540">
<rect width="1680" height="540" fill="#F6F0E2"/>
<text x="1645.0" y="18.0" text-anchor="end" font-size="9" font-weight="normal" fill="#888888" font-family="Calibri,Arial,sans-serif">Generated 7/12/2026</text>
<rect x="35" y="280" width="1610" height="32" fill="#000000" rx="5"/>
<line x1="35" y1="296.0" x2="737.1" y2="296.0" stroke="#59D186" stroke-width="7" stroke-linecap="round"/>
<text x="114.2" y="301.0" text-anchor="middle" font-size="13" font-weight="bold" fill="#ffffff" font-family="Calibri,Arial,sans-serif">Mar</text>
<line x1="198.6" y1="284" x2="198.6" y2="308" stroke="rgba(255,255,255,0.25)" stroke-width="1"/>
<text x="275.2" y="301.0" text-anchor="middle" font-size="13" font-weight="bold" fill="#ffffff" font-family="Calibri,Arial,sans-serif">Apr</text>
<line x1="357.0" y1="284" x2="357.0" y2="308" stroke="rgba(255,255,255,0.25)" stroke-width="1"/>
<text x="436.2" y="301.0" text-anchor="middle" font-size="13" font-weight="bold" fill="#ffffff" font-family="Calibri,Arial,sans-serif">May</text>
<line x1="520.6" y1="284" x2="520.6" y2="308" stroke="rgba(255,255,255,0.25)" stroke-width="1"/>
<text x="597.2" y="301.0" text-anchor="middle" font-size="13" font-weight="bold" fill="#ffffff" font-family="Calibri,Arial,sans-serif">Jun</text>
<line x1="679.0" y1="284" x2="679.0" y2="308" stroke="rgba(255,255,255,0.25)" stroke-width="1"/>
<text x="758.2" y="301.0" text-anchor="middle" font-size="13" font-weight="bold" fill="#ffffff" font-family="Calibri,Arial,sans-serif">Jul</text>
<line x1="842.6" y1="284" x2="842.6" y2="308" stroke="rgba(255,255,255,0.25)" stroke-width="1"/>
<text x="921.8" y="301.0" text-anchor="middle" font-size="13" font-weight="bold" fill="#ffffff" font-family="Calibri,Arial,sans-serif">Aug</text>
<line x1="1006.3" y1="284" x2="1006.3" y2="308" stroke="rgba(255,255,255,0.25)" stroke-width="1"/>
<text x="1082.8" y="301.0" text-anchor="middle" font-size="13" font-weight="bold" fill="#ffffff" font-family="Calibri,Arial,sans-serif">Sep</text>
<line x1="1164.6" y1="284" x2="1164.6" y2="308" stroke="rgba(255,255,255,0.25)" stroke-width="1"/>
<text x="1243.8" y="301.0" text-anchor="middle" font-size="13" font-weight="bold" fill="#ffffff" font-family="Calibri,Arial,sans-serif">Oct</text>
<line x1="1328.3" y1="284" x2="1328.3" y2="308" stroke="rgba(255,255,255,0.25)" stroke-width="1"/>
<text x="1404.8" y="301.0" text-anchor="middle" font-size="13" font-weight="bold" fill="#ffffff" font-family="Calibri,Arial,sans-serif">Nov</text>
<line x1="1486.6" y1="284" x2="1486.6" y2="308" stroke="rgba(255,255,255,0.25)" stroke-width="1"/>
<text x="1565.8" y="301.0" text-anchor="middle" font-size="13" font-weight="bold" fill="#ffffff" font-family="Calibri,Arial,sans-serif">Dec</text>
<rect x="35.0" y="12" width="92" height="22" rx="11" fill="#0089EC"/>
<polygon points="47.0,19.0 51.0,23.0 47.0,27.0 43.0,23.0" fill="#ffffff"/>
<text x="57.0" y="27.0" text-anchor="start" font-size="9.5" font-weight="normal" fill="#ffffff" font-family="Calibri,Arial,sans-serif">Complete</text>
<rect x="137.0" y="12" width="92" height="22" rx="11" fill="#00B845"/>
<polygon points="149.0,19.0 153.0,23.0 149.0,27.0 145.0,23.0" fill="#ffffff"/>
<text x="159.0" y="27.0" text-anchor="start" font-size="9.5" font-weight="normal" fill="#ffffff" font-family="Calibri,Arial,sans-serif">On Track</text>
<rect x="239.0" y="12" width="90" height="22" rx="11" fill="#FFCD27"/>
<polygon points="251.0,19.0 255.0,23.0 251.0,27.0 247.0,23.0" fill="#ffffff"/>
<text x="261.0" y="27.0" text-anchor="start" font-size="9.5" font-weight="normal" fill="#1a1a1a" font-family="Calibri,Arial,sans-serif">At Risk</text>
<rect x="339.0" y="12" width="92" height="22" rx="11" fill="#EE001E"/>
<polygon points="351.0,19.0 355.0,23.0 351.0,27.0 347.0,23.0" fill="#ffffff"/>
<text x="361.0" y="27.0" text-anchor="start" font-size="9.5" font-weight="normal" fill="#ffffff" font-family="Calibri,Arial,sans-serif">Jeopardy</text>
<rect x="441.0" y="12" width="183" height="22" rx="11" fill="#888888"/>
<polygon points="453.0,19.0 457.0,23.0 453.0,27.0 449.0,23.0" fill="#ffffff"/>
<text x="463.0" y="27.0" text-anchor="start" font-size="9.5" font-weight="normal" fill="#ffffff" font-family="Calibri,Arial,sans-serif">Not Started / On Hold</text>
<rect x="634.0" y="12" width="155" height="22" rx="11" fill="#59D186"/>
<rect x="642.0" y="21.5" width="8" height="3" rx="1.5" fill="#ffffff"/>
<text x="656.0" y="27.0" text-anchor="start" font-size="9.5" font-weight="normal" fill="#ffffff" font-family="Calibri,Arial,sans-serif">Progress to Today</text>
</svg>