<svg xmlns="http://www.w3.org/2000/svg" width="1680" height="540" viewBox="0 0 1680 540">
<rect width="1680" height="540" fill="#F6F0E2"/>
<text x="1645.0" y="18.0" text-anchor="end" font-size="9" font-weight="normal" fill="#888888" font-family="Calibri,Arial,sans-serif">Generated 6/22/2026</text>
<rect x="35" y="280" width="1610" height="32" fill="#000000" rx="5"/>
<line x1="35" y1="296.0" x2="1221.0" y2="296.0" stroke="#EE001E" stroke-width="7" stroke-linecap="round"/>
<text x="68.1" y="301.0" text-anchor="middle" font-size="13" font-weight="bold" fill="#ffffff" font-family="Calibri,Arial,sans-serif">Jan</text>
<line x1="103.5" y1="284" x2="103.5" y2="308" stroke="rgba(255,255,255,0.25)" stroke-width="1"/>
<text x="133.3" y="301.0" text-anchor="middle" font-size="13" font-weight="bold" fill="#ffffff" font-family="Calibri,Arial,sans-serif">Feb</text>
<line x1="165.3" y1="284" x2="165.3" y2="308" stroke="rgba(255,255,255,0.25)" stroke-width="1"/>
<text x="198.4" y="301.0" text-anchor="middle" font-size="13" font-weight="bold" fill="#ffffff" font-family="Calibri,Arial,sans-serif">Mar</text>
<line x1="233.8" y1="284" x2="233.8" y2="308" stroke="rgba(255,255,255,0.25)" stroke-width="1"/>
<text x="265.8" y="301.0" text-anchor="middle" font-size="13" font-weight="bold" fill="#ffffff" font-family="Calibri,Arial,sans-serif">Apr</text>
<line x1="300.0" y1="284" x2="300.0" y2="308" stroke="rgba(255,255,255,0.25)" stroke-width="1"/>
<text x="333.1" y="301.0" text-anchor="middle" font-size="13" font-weight="bold" fill="#ffffff" font-family="Calibri,Arial,sans-serif">May</text>
<line x1="368.5" y1="284" x2="368.5" y2="308" stroke="rgba(255,255,255,0.25)" stroke-width="1"/>
<text x="400.5" y="301.0" text-anchor="middle" font-size="13" font-weight="bold" fill="#ffffff" font-family="Calibri,Arial,sans-serif">Jun</text>
<line x1="434.7" y1="284" x2="434.7" y2="308" stroke="rgba(255,255,255,0.25)" stroke-width="1"/>
<text x="467.9" y="301.0" text-anchor="middle" font-size="13" font-weight="bold" fill="#ffffff" font-family="Calibri,Arial,sans-serif">Jul</text>
<line x1="503.2" y1="284" x2="503.2" y2="308" stroke="rgba(255,255,255,0.25)" stroke-width="1"/>
<text x="536.3" y="301.0" text-anchor="middle" font-size="13" font-weight="bold" fill="#ffffff" font-family="Calibri,Arial,sans-serif">Aug</text>
<line x1="571.7" y1="284" x2="571.7" y2="308" stroke="rgba(255,255,255,0.25)" stroke-width="1"/>
<text x="603.7" y="301.0" text-anchor="middle" font-size="13" font-weight="bold" fill="#ffffff" font-family="Calibri,Arial,sans-serif">Sep</text>
<line x1="637.9" y1="284" x2="637.9" y2="308" stroke="rgba(255,255,255,0.25)" stroke-width="1"/>
<text x="671.0" y="301.0" text-anchor="middle" font-size="13" font-weight="bold" fill="#ffffff" font-family="Calibri,Arial,sans-serif">Oct</text>
<line x1="706.4" y1="284" x2="706.4" y2="308" stroke="rgba(255,255,255,0.25)" stroke-width="1"/>
<text x="738.4" y="301.0" text-anchor="middle" font-size="13" font-weight="bold" fill="#ffffff" font-family="Calibri,Arial,sans-serif">Nov</text>
<line x1="772.6" y1="284" x2="772.6" y2="308" stroke="rgba(255,255,255,0.25)" stroke-width="1"/>
<text x="805.8" y="301.0" text-anchor="middle" font-size="13" font-weight="bold" fill="#ffffff" font-family="Calibri,Arial,sans-serif">Dec</text>
<line x1="841.1" y1="284" x2="841.1" y2="308" stroke="rgba(255,255,255,0.25)" stroke-width="1"/>
<text x="874.2" y="301.0" text-anchor="middle" font-size="13" font-weight="bold" fill="#ffffff" font-family="Calibri,Arial,sans-serif">Jan</text>
<line x1="909.6" y1="284" x2="909.6" y2="308" stroke="rgba(255,255,255,0.25)" stroke-width="1"/>
<text x="939.4" y="301.0" text-anchor="middle" font-size="13" font-weight="bold" fill="#ffffff" font-family="Calibri,Arial,sans-serif">Feb</text>
<line x1="971.4" y1="284" x2="971.4" y2="308" stroke="rgba(255,255,255,0.25)" stroke-width="1"/>
<text x="1004.5" y="301.0" text-anchor="middle" font-size="13" font-weight="bold" fill="#ffffff" font-family="Calibri,Arial,sans-serif">Mar</text>
<line x1="1039.9" y1="284" x2="1039.9" y2="308" stroke="rgba(255,255,255,0.25)" stroke-width="1"/>
<text x="1071.9" y="301.0" text-anchor="middle" font-size="13" font-weight="bold" fill="#ffffff" font-family="Calibri,Arial,sans-serif">Apr</text>
<line x1="1106.1" y1="284" x2="1106.1" y2="308" stroke="rgba(255,255,255,0.25)" stroke-width="1"/>
<text x="1139.3" y="301.0" text-anchor="middle" font-size="13" font-weight="bold" fill="#ffffff" font-family="Calibri,Arial,sans-serif">May</text>
<line x1="1174.6" y1="284" x2="1174.6" y2="308" stroke="rgba(255,255,255,0.25)" stroke-width="1"/>
<text x="1206.6" y="301.0" text-anchor="middle" font-size="13" font-weight="bold" fill="#ffffff" font-family="Calibri,Arial,sans-serif">Jun</text>
<line x1="1240.8" y1="284" x2="1240.8" y2="308" stroke="rgba(255,255,255,0.25)" stroke-width="1"/>
<text x="1274.0" y="301.0" text-anchor="middle" font-size="13" font-weight="bold" fill="#ffffff" font-family="Calibri,Arial,sans-serif">Jul</text>
<line x1="1309.3" y1="284" x2="1309.3" y2="308" stroke="rgba(255,255,255,0.25)" stroke-width="1"/>
<text x="1342.4" y="301.0" text-anchor="middle" font-size="13" font-weight="bold" fill="#ffffff" font-family="Calibri,Arial,sans-serif">Aug</text>
<line x1="1377.8" y1="284" x2="1377.8" y2="308" stroke="rgba(255,255,255,0.25)" stroke-width="1"/>
<text x="1409.8" y="301.0" text-anchor="middle" font-size="13" font-weight="bold" fill="#ffffff" font-family="Calibri,Arial,sans-serif">Sep</text>
<line x1="1444.0" y1="284" x2="1444.0" y2="308" stroke="rgba(255,255,255,0.25)" stroke-width="1"/>
<text x="1477.2" y="301.0" text-anchor="middle" font-size="13" font-weight="bold" fill="#ffffff" font-family="Calibri,Arial,sans-serif">Oct</text>
<line x1="1512.5" y1="284" x2="1512.5" y2="308" stroke="rgba(255,255,255,0.25)" stroke-width="1"/>
<text x="1544.5" y="301.0" text-anchor="middle" font-size="13" font-weight="bold" fill="#ffffff" font-family="Calibri,Arial,sans-serif">Nov</text>
<line x1="1578.7" y1="284" x2="1578.7" y2="308" stroke="rgba(255,255,255,0.25)" stroke-width="1"/>
<text x="1611.9" y="301.0" text-anchor="middle" font-size="13" font-weight="bold" fill="#ffffff" font-family="Calibri,Arial,sans-serif">Dec</text>
<line x1="63.7" y1="280" x2="63.7" y2="212" stroke="#0089EC" stroke-width="1.3"/>
<polygon points="63.71056241426612,271 72.71056241426612,280 63.71056241426612,289 54.71056241426612,280" fill="#0089EC"/>
<text x="63.7" y="207.0" text-anchor="middle" font-size="12.5" font-weight="normal" fill="#1a1a1a" font-family="Calibri,Arial,sans-serif">Project Kickoff</text>
<text x="63.7" y="190.0" text-anchor="middle" font-size="10" font-weight="bold" fill="#1a1a1a" font-family="Calibri,Arial,sans-serif">1/14</text>
<line x1="79.2" y1="312" x2="79.2" y2="380" stroke="#0089EC" stroke-width="1.3"/>
<polygon points="79.17009602194787,303 88.17009602194787,312 79.17009602194787,321 70.17009602194787,312" fill="#0089EC"/>
<text x="79.2" y="399.0" text-anchor="middle" font-size="12.5" font-weight="normal" fill="#1a1a1a" font-family="Calibri,Arial,sans-serif">Product Requirements</text>
<text x="79.2" y="413.0" text-anchor="middle" font-size="12.5" font-weight="normal" fill="#1a1a1a" font-family="Calibri,Arial,sans-serif">Review</text>
<text x="79.2" y="429.0" text-anchor="middle" font-size="10" font-weight="bold" fill="#1a1a1a" font-family="Calibri,Arial,sans-serif">1/21</text>
<line x1="94.6" y1="280" x2="94.6" y2="165" stroke="#0089EC" stroke-width="1.3"/>
<polygon points="94.62962962962962,271 103.62962962962962,280 94.62962962962962,289 85.62962962962962,280" fill="#0089EC"/>
<text x="94.6" y="160.0" text-anchor="middle" font-size="12.5" font-weight="normal" fill="#1a1a1a" font-family="Calibri,Arial,sans-serif">Impact Alignment</text>
<text x="94.6" y="143.0" text-anchor="middle" font-size="10" font-weight="bold" fill="#1a1a1a" font-family="Calibri,Arial,sans-serif">1/28</text>
<line x1="194.0" y1="312" x2="194.0" y2="427" stroke="#0089EC" stroke-width="1.3"/>
<polygon points="194.01234567901233,301 205.01234567901233,312 194.01234567901233,323 183.01234567901233,312" fill="#0089EC"/>
<text x="194.0" y="446.0" text-anchor="middle" font-size="12.5" font-weight="bold" fill="#1a1a1a" font-family="Calibri,Arial,sans-serif">Business Case</text>
<text x="194.0" y="460.0" text-anchor="middle" font-size="12.5" font-weight="bold" fill="#1a1a1a" font-family="Calibri,Arial,sans-serif">Approved</text>
<text x="194.0" y="476.0" text-anchor="middle" font-size="10" font-weight="bold" fill="#1a1a1a" font-family="Calibri,Arial,sans-serif">3/14</text>
<line x1="596.0" y1="280" x2="596.0" y2="212" stroke="#0089EC" stroke-width="1.3"/>
<polygon points="595.960219478738,271 604.960219478738,280 595.960219478738,289 586.960219478738,280" fill="#0089EC"/>
<text x="596.0" y="207.0" text-anchor="middle" font-size="12.5" font-weight="normal" fill="#1a1a1a" font-family="Calibri,Arial,sans-serif">GTS RTE Assigned</text>
<text x="596.0" y="190.0" text-anchor="middle" font-size="10" font-weight="bold" fill="#1a1a1a" font-family="Calibri,Arial,sans-serif">9/12</text>
<line x1="914.0" y1="312" x2="914.0" y2="380" stroke="#0089EC" stroke-width="1.3"/>
<polygon points="913.9849108367627,303 922.9849108367627,312 913.9849108367627,321 904.9849108367627,312" fill="#0089EC"/>
<text x="914.0" y="399.0" text-anchor="middle" font-size="12.5" font-weight="normal" fill="#1a1a1a" font-family="Calibri,Arial,sans-serif">GN&amp;T and GTS Dev /</text>
<text x="914.0" y="413.0" text-anchor="middle" font-size="12.5" font-weight="normal" fill="#1a1a1a" font-family="Calibri,Arial,sans-serif">Engineering</text>
<text x="914.0" y="427.0" text-anchor="middle" font-size="12.5" font-weight="normal" fill="#1a1a1a" font-family="Calibri,Arial,sans-serif">Engagement</text>
<text x="914.0" y="443.0" text-anchor="middle" font-size="10" font-weight="bold" fill="#1a1a1a" font-family="Calibri,Arial,sans-serif">2/3</text>
<line x1="997.9" y1="280" x2="997.9" y2="212" stroke="#00B845" stroke-width="1.3"/>
<polygon points="997.9080932784636,271 1006.9080932784636,280 997.9080932784636,289 988.9080932784636,280" fill="#00B845"/>
<text x="997.9" y="193.0" text-anchor="middle" font-size="12.5" font-weight="normal" fill="#1a1a1a" font-family="Calibri,Arial,sans-serif">GTS Low Level Design</text>
<text x="997.9" y="207.0" text-anchor="middle" font-size="12.5" font-weight="normal" fill="#1a1a1a" font-family="Calibri,Arial,sans-serif">and Grooming</text>
<text x="997.9" y="176.0" text-anchor="middle" font-size="10" font-weight="bold" fill="#1a1a1a" font-family="Calibri,Arial,sans-serif">3/13</text>
<line x1="997.9" y1="312" x2="997.9" y2="427" stroke="#00B845" stroke-width="1.3"/>
<polygon points="997.9080932784636,303 1006.9080932784636,312 997.9080932784636,321 988.9080932784636,312" fill="#00B845"/>
<text x="997.9" y="446.0" text-anchor="middle" font-size="12.5" font-weight="normal" fill="#1a1a1a" font-family="Calibri,Arial,sans-serif">TPD Low Level Design</text>
<text x="997.9" y="460.0" text-anchor="middle" font-size="12.5" font-weight="normal" fill="#1a1a1a" font-family="Calibri,Arial,sans-serif">and Grooming</text>
<text x="997.9" y="476.0" text-anchor="middle" font-size="10" font-weight="bold" fill="#1a1a1a" font-family="Calibri,Arial,sans-serif">3/13</text>
<line x1="1137.0" y1="280" x2="1137.0" y2="212" stroke="#0089EC" stroke-width="1.3"/>
<polygon points="1137.0438957475994,269 1148.0438957475994,280 1137.0438957475994,291 1126.0438957475994,280" fill="#0089EC"/>
<text x="1137.0" y="193.0" text-anchor="middle" font-size="12.5" font-weight="bold" fill="#1a1a1a" font-family="Calibri,Arial,sans-serif">Committed Date</text>
<text x="1137.0" y="207.0" text-anchor="middle" font-size="12.5" font-weight="bold" fill="#1a1a1a" font-family="Calibri,Arial,sans-serif">Received - GTS</text>
<text x="1137.0" y="176.0" text-anchor="middle" font-size="10" font-weight="bold" fill="#1a1a1a" font-family="Calibri,Arial,sans-serif">5/15</text>
<line x1="1137.0" y1="312" x2="1137.0" y2="380" stroke="#0089EC" stroke-width="1.3"/>
<polygon points="1137.0438957475994,301 1148.0438957475994,312 1137.0438957475994,323 1126.0438957475994,312" fill="#0089EC"/>
<text x="1137.0" y="399.0" text-anchor="middle" font-size="12.5" font-weight="bold" fill="#1a1a1a" font-family="Calibri,Arial,sans-serif">Committed Date</text>
<text x="1137.0" y="413.0" text-anchor="middle" font-size="12.5" font-weight="bold" fill="#1a1a1a" font-family="Calibri,Arial,sans-serif">Received - TPD</text>
<text x="1137.0" y="429.0" text-anchor="middle" font-size="10" font-weight="bold" fill="#1a1a1a" font-family="Calibri,Arial,sans-serif">5/15</text>
<line x1="1276.2" y1="280" x2="1276.2" y2="212" stroke="#00B845" stroke-width="1.3"/>
<polygon points="1276.1796982167352,271 1285.1796982167352,280 1276.1796982167352,289 1267.1796982167352,280" fill="#00B845"/>
<text x="1276.2" y="207.0" text-anchor="middle" font-size="12.5" font-weight="normal" fill="#1a1a1a" font-family="Calibri,Arial,sans-serif">Development</text>
<text x="1276.2" y="190.0" text-anchor="middle" font-size="10" font-weight="bold" fill="#1a1a1a" font-family="Calibri,Arial,sans-serif">7/17</text>
<rect x="35.0" y="12" width="92" height="22" rx="11" fill="#0089EC"/>
<polygon points="47.0,19.0 51.0,23.0 47.0,27.0 43.0,23.0" fill="#ffffff"/>
<text x="57.0" y="27.0" text-anchor="start" font-size="9.5" font-weight="normal" fill="#ffffff" font-family="Calibri,Arial,sans-serif">Complete</text>
<rect x="137.0" y="12" width="92" height="22" rx="11" fill="#00B845"/>
<polygon points="149.0,19.0 153.0,23.0 149.0,27.0 145.0,23.0" fill="#ffffff"/>
<text x="159.0" y="27.0" text-anchor="start" font-size="9.5" font-weight="normal" fill="#ffffff" font-family="Calibri,Arial,sans-serif">On Track</text>
<rect x="239.0" y="12" width="90" height="22" rx="11" fill="#FFCD27"/>
<polygon points="251.0,19.0 255.0,23.0 251.0,27.0 247.0,23.0" fill="#ffffff"/>
<text x="261.0" y="27.0" text-anchor="start" font-size="9.5" font-weight="normal" fill="#1a1a1a" font-family="Calibri,Arial,sans-serif">At Risk</text>
<rect x="339.0" y="12" width="92" height="22" rx="11" fill="#EE001E"/>
<polygon points="351.0,19.0 355.0,23.0 351.0,27.0 347.0,23.0" fill="#ffffff"/>
<text x="361.0" y="27.0" text-anchor="start" font-size="9.5" font-weight="normal" fill="#ffffff" font-family="Calibri,Arial,sans-serif">Jeopardy</text>
<rect x="441.0" y="12" width="183" height="22" rx="11" fill="#888888"/>
<polygon points="453.0,19.0 457.0,23.0 453.0,27.0 449.0,23.0" fill="#ffffff"/>
<text x="463.0" y="27.0" text-anchor="start" font-size="9.5" font-weight="normal" fill="#ffffff" font-family="Calibri,Arial,sans-serif">Not Started / On Hold</text>
<rect x="634.0" y="12" width="155" height="22" rx="11" fill="#EE001E"/>
<rect x="642.0" y="21.5" width="8" height="3" rx="1.5" fill="#ffffff"/>
<text x="656.0" y="27.0" text-anchor="start" font-size="9.5" font-weight="normal" fill="#ffffff" font-family="Calibri,Arial,sans-serif">Progress to Today</text>
</svg>